<!-- Generated by IcoMoon.io -->
<svg version="1.1" xmlns="http://www.w3.org/2000/svg" width="32" height="32" viewBox="0 0 32 32">
<title>icon__github</title>
<path fill="#d1b160" d="M16 0c-8.838 0.006-15.999 7.172-15.999 16.011 0 7.032 4.533 13.005 10.837 15.156l0.113 0.033c0.8 0.15 1.1-0.35 1.1-0.75v-3c-4.45 0.95-5.4-1.9-5.4-1.9-0.75-1.85-1.8-2.35-1.8-2.35-1.45-1 0.1-0.95 0.1-0.95 1.6 0.1 2.45 1.65 2.45 1.65 1.45 2.45 3.75 1.75 4.65 1.35 0.075-0.845 0.443-1.592 1-2.15l-0 0c-3.55-0.4-7.3-1.8-7.3-7.9-0.001-0.034-0.001-0.073-0.001-0.113 0-1.62 0.628-3.094 1.654-4.191l-0.003 0.003c-0.202-0.575-0.319-1.238-0.319-1.928 0-0.839 0.173-1.637 0.484-2.361l-0.015 0.039s1.35-0.45 4.4 1.65c1.197-0.342 2.574-0.542 3.995-0.55l0.005-0c1.425 0.004 2.802 0.205 4.107 0.576l-0.107-0.026c3.050-2.050 4.4-1.65 4.4-1.65 0.297 0.686 0.469 1.484 0.469 2.322 0 0.69-0.117 1.353-0.332 1.97l0.013-0.042c1.023 1.081 1.652 2.544 1.652 4.154 0 0.051-0.001 0.102-0.002 0.153l0-0.008c0 6.15-3.75 7.5-7.3 7.9 0.685 0.698 1.107 1.655 1.107 2.711 0 0.084-0.003 0.167-0.008 0.25l0.001-0.011v4.4c0 0.45 0.3 0.9 1.1 0.75 6.416-2.185 10.949-8.158 10.949-15.19 0-8.838-7.162-16.004-15.999-16.011h-0.001z"></path>
<path fill="#d1b160" d="M6.050 22.95c-0.050 0.1-0.15 0.1-0.25 0.050s-0.2-0.15-0.15-0.25 0.15-0.1 0.3-0.050c0.1 0.1 0.15 0.2 0.1 0.25zM6.7 23.7c-0.041 0.023-0.090 0.037-0.142 0.037-0.163 0-0.295-0.132-0.295-0.294 0-0.052 0.014-0.101 0.037-0.143l-0.001 0.002c0.040-0.020 0.088-0.032 0.138-0.032 0.082 0 0.156 0.031 0.212 0.082l-0-0c0.062 0.045 0.101 0.118 0.101 0.199 0 0.057-0.019 0.109-0.052 0.151l0-0.001zM7.35 24.6c-0.026 0.009-0.056 0.013-0.088 0.013-0.115 0-0.214-0.066-0.262-0.162l-0.001-0.002c-0.047-0.053-0.076-0.123-0.076-0.2s0.029-0.147 0.077-0.2l-0 0c0.026-0.009 0.056-0.013 0.088-0.013 0.115 0 0.214 0.066 0.262 0.162l0.001 0.002c0.1 0.15 0.1 0.35 0 0.4zM8.2 25.5c-0.1 0.1-0.25 0.050-0.4-0.050-0.15-0.15-0.2-0.3-0.1-0.4 0.048-0.032 0.107-0.051 0.171-0.051 0.091 0 0.172 0.039 0.229 0.101l0 0c0.088 0.047 0.148 0.139 0.148 0.245 0 0.058-0.018 0.112-0.048 0.156l0.001-0.001zM9.4 26c-0.050 0.15-0.2 0.2-0.4 0.15s-0.3-0.2-0.25-0.35 0.2-0.2 0.4-0.15c0.15 0.1 0.3 0.25 0.25 0.35zM10.7 26.1c0 0.15-0.15 0.25-0.35 0.25s-0.35-0.1-0.35-0.25 0.15-0.25 0.35-0.25c0.2 0.050 0.35 0.15 0.35 0.25zM11.9 25.9q0 0.225-0.3 0.3c-0.031 0.010-0.067 0.016-0.105 0.016-0.125 0-0.234-0.066-0.294-0.165l-0.001-0.002q0-0.225 0.3-0.3c0.25-0.050 0.4 0.050 0.4 0.15z"></path>
</svg>
