<!-- Generated by IcoMoon.io -->
<svg version="1.1" xmlns="http://www.w3.org/2000/svg" width="32" height="32" viewBox="0 0 32 32">
<title>icon__behance</title>
<path fill="#d1b160" d="M13.242 15.82c1.7-0.857 2.45-2.216 2.45-4.181-0.002-3.728-2.749-5.138-6.497-5.138h-9.194v20h9.244c3.55 0 7.045-1.763 7.045-5.794 0-2.317-0.85-4.131-3.048-4.886zM4.597 9.925h4.048c1.55 0 3.050 0.403 3.050 2.317 0 1.562-1.15 2.166-2.65 2.166h-4.447zM8.994 23.076h-4.397v-5.341h4.497c1.85 0 3.050 0.706 3.050 2.771-0.002 1.914-1.451 2.569-3.149 2.569zM25.134 11.185c-4.947 0-7.296 3.325-7.296 7.658 0 4.937 2.95 7.607 7.296 7.607 3.25 0 5.596-1.31 6.696-4.685h-3.85c-0.25 0.907-1.5 1.663-2.7 1.663-2.2 0-3.55-1.209-3.65-3.627h10.35c0.25-4.484-1.799-8.615-6.846-8.615zM21.684 17.331c-0-0.006-0-0.014-0-0.021 0-1.661 1.346-3.008 3.008-3.008 0.068 0 0.135 0.002 0.202 0.007l-0.009-0c1.9 0 2.85 1.008 3.25 3.022zM20.837 7.306h8.045v2.015h-8.045z"></path>
</svg>
