<!-- Generated by IcoMoon.io -->
<svg version="1.1" xmlns="http://www.w3.org/2000/svg" width="32" height="32" viewBox="0 0 32 32">
<title>icon__dribbble</title>
<path fill="#d1b160" d="M16 0c-8.837 0-16 7.163-16 16s7.163 16 16 16c8.837 0 16-7.163 16-16v0c0-0.005 0-0.011 0-0.017 0-8.827-7.156-15.983-15.983-15.983-0.006 0-0.012 0-0.018 0h0.001zM26.5 7.75c1.696 2.164 2.753 4.9 2.849 7.878l0.001 0.022c-1.631-0.332-3.507-0.521-5.426-0.521-1.384 0-2.745 0.099-4.076 0.289l0.152-0.018q-0.525-1.2-1.050-2.25c3.003-1.221 5.533-3.061 7.529-5.375l0.021-0.025zM16 2.65c0.013-0 0.029-0 0.045-0 3.297 0 6.311 1.212 8.621 3.214l-0.016-0.014c-1.837 2.172-4.173 3.865-6.834 4.91l-0.116 0.040c-1.618-3.019-3.225-5.569-4.988-7.999l0.138 0.199c0.899-0.223 1.932-0.351 2.994-0.351 0.055 0 0.109 0 0.164 0.001l-0.008-0zM10.25 3.95c1.649 2.197 3.287 4.696 4.765 7.297l0.185 0.353c-3.75 1.050-7.95 1.3-12.2 1.3 0.979-3.982 3.641-7.202 7.17-8.915l0.080-0.035zM2.65 16v-0.45h0.050c4.75 0 9.5-0.3 13.75-1.55 0.3 0.65 0.65 1.3 0.95 2-5.6 1.65-9.050 5.3-11.45 8.8-2.049-2.339-3.299-5.424-3.3-8.8v-0zM16 29.35c-3.061-0.009-5.879-1.041-8.132-2.773l0.032 0.023c2.25-3.4 5.4-6.75 10.5-8.15 1.159 2.843 2.099 6.172 2.663 9.627l0.037 0.273c-1.504 0.633-3.253 1-5.087 1-0.005 0-0.009 0-0.014 0h0.001zM23.55 27c-0.629-3.473-1.495-6.527-2.62-9.454l0.12 0.354c0.898-0.111 1.936-0.175 2.99-0.175 1.827 0 3.609 0.191 5.327 0.555l-0.167-0.030c-0.672 3.652-2.734 6.729-5.605 8.721l-0.045 0.029z"></path>
</svg>
